<?xml version="1.0" encoding="UTF-8"?>
<svg width="24px" height="22px" viewBox="0 0 24 22" version="1.1" xmlns="http://www.w3.org/2000/svg" xmlns:xlink="http://www.w3.org/1999/xlink">
    <!-- Generator: Sketch 46 (44423) - http://www.bohemiancoding.com/sketch -->
    <title>Group 7</title>
    <desc>Created with Sketch.</desc>
    <defs></defs>
    <g id="Page-1" stroke="none" stroke-width="1" fill="none" fill-rule="evenodd">
        <g id="Desktop" transform="translate(-886.000000, -419.000000)">
            <g id="Group-7" transform="translate(886.000000, 419.000000)">
                <path d="M11,22 C17.0751325,22 22,17.0751325 22,11 C22,4.92486745 17.0751325,0 11,0 C4.92486745,0 0,4.92486745 0,11 C0,17.0751325 4.92486745,22 11,22 L11,22 Z M11,21 C16.5228478,21 21,16.5228478 21,11 C21,5.47715223 16.5228478,1 11,1 C5.47715223,1 1,5.47715223 1,11 C1,16.5228478 5.47715223,21 11,21 L11,21 Z" id="circle_close_delete_outline_stroke" fill="#AFAFAF"></path>
                <g id="Group-2" transform="translate(4.000000, 5.000000)" stroke="#48E51D" stroke-width="3" stroke-linecap="square">
                    <path d="M0.5,6.5 L6.5,12.5" id="Line"></path>
                    <path d="M6.5,12.5 L17.5,0.5" id="Line-2"></path>
                </g>
            </g>
        </g>
    </g>
</svg>