<?xml version="1.0" encoding="UTF-8"?>
<svg width="24px" height="24px" viewBox="0 0 24 24" version="1.1" xmlns="http://www.w3.org/2000/svg" xmlns:xlink="http://www.w3.org/1999/xlink">
    <!-- Generator: Sketch 46 (44423) - http://www.bohemiancoding.com/sketch -->
    <title>Group 5</title>
    <desc>Created with Sketch.</desc>
    <defs></defs>
    <g id="Page-1" stroke="none" stroke-width="1" fill="none" fill-rule="evenodd">
        <g id="Desktop" transform="translate(-751.000000, -455.000000)">
            <g id="Group-5" transform="translate(752.000000, 456.000000)">
                <circle id="Oval" stroke="#B6B6B6" cx="11" cy="11" r="11"></circle>
                <path d="M6,6.14912173 L6,15.8508783 C6,15.9332359 6.06385803,16 6.14912173,16 L15.8508783,16 C15.9332359,16 16,15.9329213 16,15.8518226 L16,7.66666667 L14.3333333,6 L6.14817738,6 C6.06634127,6 6,6.06385803 6,6.14912173 Z M7.9047619,15.047619 L7.9047619,11.7142857 L14.0952381,11.7142857 L14.0952381,15.047619 L7.9047619,15.047619 Z M8.85714286,6.95238095 L8.85714286,9.33333333 L13.1428571,9.33333333 L13.1428571,6.95238096 L8.85714286,6.95238095 Z M11.7142857,6.95238095 L11.7142857,7.9047619 L12.1904762,7.9047619 L12.1904762,6.95238095 L11.7142857,6.95238095 L11.7142857,6.95238095 Z" id="editor_floopy-dish_save_glyph" fill="#C4C4C4"></path>
            </g>
        </g>
    </g>
</svg>