<svg width="22px" height="22px" viewBox="0 0 22 22" version="1.1" xmlns="http://www.w3.org/2000/svg" xmlns:xlink="http://www.w3.org/1999/xlink">
    <!-- Generator: Sketch 46 (44423) - http://www.bohemiancoding.com/sketch -->
    <title>circle_add_plus_outline_stroke</title>
    <desc>Created with Sketch.</desc>
    <defs></defs>
    <g id="Page-1" stroke="none" stroke-width="1" fill="none" fill-rule="evenodd">
        <g id="Desktop" transform="translate(-917.000000, -171.000000)" fill="#0BD1FF">
            <g id="Group-3" transform="translate(66.000000, 152.000000)">
                <path d="M855.5,30.5 L855.5,29.5 L861.5,29.5 L861.5,23.5 L862.5,23.5 L862.5,29.5 L868.5,29.5 L868.5,30.5 L862.5,30.5 L862.5,36.5 L861.5,36.5 L861.5,30.5 L855.5,30.5 Z M862,41 C868.075133,41 873,36.0751325 873,30 C873,23.9248675 868.075133,19 862,19 C855.924867,19 851,23.9248675 851,30 C851,36.0751325 855.924867,41 862,41 L862,41 Z M862,40 C867.522848,40 872,35.5228477 872,30 C872,24.4771522 867.522848,20 862,20 C856.477152,20 852,24.4771522 852,30 C852,35.5228477 856.477152,40 862,40 L862,40 Z" id="circle_add_plus_outline_stroke"></path>
            </g>
        </g>
    </g>
</svg>