<svg width="22px" height="22px" viewBox="0 0 22 22" version="1.1" xmlns="http://www.w3.org/2000/svg" xmlns:xlink="http://www.w3.org/1999/xlink">
    <!-- Generator: Sketch 46 (44423) - http://www.bohemiancoding.com/sketch -->
    <title>common_search_lookup_outline_stroke</title>
    <desc>Created with Sketch.</desc>
    <defs></defs>
    <g id="Page-1" stroke="none" stroke-width="1" fill="none" fill-rule="evenodd">
        <g id="Desktop" transform="translate(-917.000000, -91.000000)" fill="#C8C8C8">
            <path d="M930.355321,106.477719 C928.978868,107.437293 927.305148,108 925.5,108 C920.805579,108 917,104.194421 917,99.5 C917,94.8055794 920.805579,91 925.5,91 C930.194421,91 934,94.8055794 934,99.5 C934,101.667566 933.188662,103.645635 931.85311,105.147081 L938.197023,111.490994 C938.25233,111.546301 938.257003,111.642045 938.200832,111.698217 L936.990032,112.909017 C936.935379,112.96367 936.841084,112.963482 936.782809,112.905207 L930.355321,106.477719 L930.355321,106.477719 Z M925.5,107 C929.642136,107 933,103.642136 933,99.5 C933,95.3578642 929.642136,92 925.5,92 C921.357864,92 918,95.3578642 918,99.5 C918,103.642136 921.357864,107 925.5,107 L925.5,107 Z" id="common_search_lookup_outline_stroke"></path>
        </g>
    </g>
</svg>