<?xml version="1.0" encoding="UTF-8"?>
<svg width="22px" height="22px" viewBox="0 0 22 22" version="1.1" xmlns="http://www.w3.org/2000/svg" xmlns:xlink="http://www.w3.org/1999/xlink">
    <!-- Generator: Sketch 46 (44423) - http://www.bohemiancoding.com/sketch -->
    <title>circle_close_delete_outline_stroke</title>
    <desc>Created with Sketch.</desc>
    <defs></defs>
    <g id="Page-1" stroke="none" stroke-width="1" fill="none" fill-rule="evenodd">
        <g id="Desktop" transform="translate(-886.000000, -419.000000)" fill="#AFAFAF">
            <path d="M897,441 C903.075133,441 908,436.075133 908,430 C908,423.924867 903.075133,419 897,419 C890.924867,419 886,423.924867 886,430 C886,436.075133 890.924867,441 897,441 L897,441 Z M897,440 C902.522848,440 907,435.522848 907,430 C907,424.477152 902.522848,420 897,420 C891.477152,420 887,424.477152 887,430 C887,435.522848 891.477152,440 897,440 L897,440 Z" id="circle_close_delete_outline_stroke"></path>
        </g>
    </g>
</svg>