<?xml version="1.0" encoding="UTF-8"?>
<svg width="22px" height="22px" viewBox="0 0 22 22" version="1.1" xmlns="http://www.w3.org/2000/svg" xmlns:xlink="http://www.w3.org/1999/xlink">
    <!-- Generator: Sketch 46 (44423) - http://www.bohemiancoding.com/sketch -->
    <title>circle_edit_pen_pencil_outline_stroke</title>
    <desc>Created with Sketch.</desc>
    <defs></defs>
    <g id="Page-1" stroke="none" stroke-width="1" fill="none" fill-rule="evenodd">
        <g id="Desktop" transform="translate(-688.000000, -456.000000)" fill="#AFAFAF">
            <path d="M699,478 C705.075133,478 710,473.075133 710,467 C710,460.924867 705.075133,456 699,456 C692.924867,456 688,460.924867 688,467 C688,473.075133 692.924867,478 699,478 L699,478 Z M699,477 C704.522848,477 709,472.522848 709,467 C709,461.477152 704.522848,457 699,457 C693.477152,457 689,461.477152 689,467 C689,472.522848 693.477152,477 699,477 L699,477 Z M700.897191,462.825419 L695.048407,470.311521 L694.9991,472.811035 L697.412439,472.158506 L703.261223,464.672403 L702.473213,464.056742 L696.81051,471.304671 L695.922592,471.629019 L696.022499,470.68901 L701.685202,463.441081 L700.897191,462.825419 L700.897191,462.825419 Z M703.221656,461.404158 C702.820166,461.09048 701.817984,461.576508 701.817984,461.576508 L701.202322,462.364519 L703.566355,464.211503 L704.182016,463.423492 C704.182016,463.423492 704.413208,462.335101 704.009667,462.01982 L703.221656,461.404158 L703.221656,461.404158 Z" id="circle_edit_pen_pencil_outline_stroke"></path>
        </g>
    </g>
</svg>